Sprint_04500001_forces_filt100Hz.mot
version=1
nRows=57
nColumns=19
inDegrees=yes
endheader
time	R_ground_force_vx	R_ground_force_vy	R_ground_force_vz	R_ground_force_px	R_ground_force_py	R_ground_force_pz	R_ground_torque_x	R_ground_torque_y	R_ground_torque_z	L_ground_force_vx	L_ground_force_vy	L_ground_force_vz	L_ground_force_px	L_ground_force_py	L_ground_force_pz	L_ground_torque_x	L_ground_torque_y	L_ground_torque_z	
0.000000	  0.000000	  0.000000	  0.000000	  0.413652	  0.000000	 -0.229379	  0.000000	  0.000000	  0.000000	  0.000000	  0.000000	  0.000000	  0.950624	  0.000000	 -0.367706	  0.000000	  0.000000	  0.000000
0.000500	  0.000000	  0.000000	  0.000000	  0.411960	 -0.000000	 -0.229253	  0.000000	  0.000000	  0.000000	  0.000000	  0.000000	  0.000000	  0.953644	 -0.000000	 -0.367738	  0.000000	  0.000000	  0.000000
0.001000	  0.000000	  0.000000	  0.000000	  0.410268	 -0.000000	 -0.229126	  0.000000	  0.000000	  0.000000	  0.000000	  0.000000	  0.000000	  0.956665	 -0.000000	 -0.367771	  0.000000	  0.000000	  0.000000
0.001500	  0.000000	  0.000000	  0.000000	  0.408576	 -0.000000	 -0.229000	  0.000000	  0.000000	  0.000000	  0.000000	  0.000000	  0.000000	  0.959686	 -0.000000	 -0.367804	  0.000000	  0.000000	  0.000000
0.002000	  0.000000	  0.000000	  0.000000	  0.406884	 -0.000000	 -0.228873	  0.000000	  0.000000	  0.000000	  0.000000	  0.000000	  0.000000	  0.962707	 -0.000000	 -0.367836	  0.000000	  0.000000	  0.000000
0.002500	  0.000000	  0.000000	  0.000000	  0.405192	  0.000000	 -0.228747	  0.000000	  0.000000	  0.000000	  0.000000	  0.000000	  0.000000	  0.965728	  0.000000	 -0.367869	  0.000000	  0.000000	  0.000000
0.003000	  0.000000	  0.000000	  0.000000	  0.403500	  0.000000	 -0.228621	  0.000000	  0.000000	  0.000000	  0.000000	  0.000000	  0.000000	  0.968748	  0.000000	 -0.367902	  0.000000	  0.000000	  0.000000
0.003500	  0.000000	  0.000000	  0.000000	  0.401808	  0.000000	 -0.228494	  0.000000	  0.000000	  0.000000	  0.000000	  0.000000	  0.000000	  0.971769	  0.000000	 -0.367934	  0.000000	  0.000000	  0.000000
0.004000	  0.000000	  0.000000	  0.000000	  0.400115	  0.000000	 -0.228368	  0.000000	  0.000000	  0.000000	  0.000000	  0.000000	  0.000000	  0.974790	  0.000000	 -0.367967	  0.000000	  0.000000	  0.000000
0.004500	  0.000000	  0.000000	  0.000000	  0.398423	  0.000000	 -0.228241	  0.000000	  0.000000	  0.000000	  0.000000	  0.000000	  0.000000	  0.977811	  0.000000	 -0.367999	  0.000000	  0.000000	  0.000000
0.005000	  0.000000	  0.000000	  0.000000	  0.396731	  0.000000	 -0.228115	  0.000000	  0.000000	  0.000000	  0.000000	  0.000000	  0.000000	  0.980832	  0.000000	 -0.368032	  0.000000	  0.000000	  0.000000
0.005500	  0.000000	  0.000000	  0.000000	  0.395150	  0.000000	 -0.227973	  0.000000	  0.000000	  0.000000	  0.000000	  0.000000	  0.000000	  0.983898	  0.000000	 -0.368118	  0.000000	  0.000000	  0.000000
0.006000	  0.000000	  0.000000	  0.000000	  0.393568	  0.000000	 -0.227832	  0.000000	  0.000000	  0.000000	  0.000000	  0.000000	  0.000000	  0.986965	  0.000000	 -0.368203	  0.000000	  0.000000	  0.000000
0.006500	  0.000000	  0.000000	  0.000000	  0.391987	  0.000000	 -0.227691	  0.000000	  0.000000	  0.000000	  0.000000	  0.000000	  0.000000	  0.990032	  0.000000	 -0.368288	  0.000000	  0.000000	  0.000000
0.007000	  0.000000	  0.000000	  0.000000	  0.390405	  0.000000	 -0.227549	  0.000000	  0.000000	  0.000000	  0.000000	  0.000000	  0.000000	  0.993098	  0.000000	 -0.368374	  0.000000	  0.000000	  0.000000
0.007500	  0.000000	  0.000000	  0.000000	  0.388824	  0.000000	 -0.227408	  0.000000	  0.000000	  0.000000	  0.000000	  0.000000	  0.000000	  0.996165	  0.000000	 -0.368459	  0.000000	  0.000000	  0.000000
0.008000	  0.000000	  0.000000	  0.000000	  0.387242	  0.000000	 -0.227266	  0.000000	  0.000000	  0.000000	  0.000000	  0.000000	  0.000000	  0.999231	  0.000000	 -0.368545	  0.000000	  0.000000	  0.000000
0.008500	  0.000000	  0.000000	  0.000000	  0.385660	  0.000000	 -0.227125	  0.000000	  0.000000	  0.000000	  0.000000	  0.000000	  0.000000	  1.002298	  0.000000	 -0.368630	  0.000000	  0.000000	  0.000000
0.009000	  0.000000	  0.000000	  0.000000	  0.384079	  0.000000	 -0.226983	  0.000000	  0.000000	  0.000000	  0.000000	  0.000000	  0.000000	  1.005365	  0.000000	 -0.368715	  0.000000	  0.000000	  0.000000
0.009500	  0.000000	  0.000000	  0.000000	  0.382497	  0.000000	 -0.226842	  0.000000	  0.000000	  0.000000	  0.000000	  0.000000	  0.000000	  1.008431	  0.000000	 -0.368801	  0.000000	  0.000000	  0.000000
0.010000	  0.000000	  0.000000	  0.000000	  0.380916	  0.000000	 -0.226701	  0.000000	  0.000000	  0.000000	  0.000000	  0.000000	  0.000000	  1.011498	  0.000000	 -0.368886	  0.000000	  0.000000	  0.000000
0.010500	  0.000000	  0.000000	  0.000000	  0.379380	  0.000000	 -0.226527	  0.000000	  0.000000	  0.000000	  0.000000	  0.000000	  0.000000	  1.014495	  0.000000	 -0.368982	  0.000000	  0.000000	  0.000000
0.011000	  0.000000	  0.000000	  0.000000	  0.377844	  0.000000	 -0.226353	  0.000000	  0.000000	  0.000000	  0.000000	  0.000000	  0.000000	  1.017492	  0.000000	 -0.369079	  0.000000	  0.000000	  0.000000
0.011500	  0.000000	  0.000000	  0.000000	  0.376308	  0.000000	 -0.226179	  0.000000	  0.000000	  0.000000	  0.000000	  0.000000	  0.000000	  1.020489	  0.000000	 -0.369175	  0.000000	  0.000000	  0.000000
0.012000	  0.000000	  0.000000	  0.000000	  0.374771	  0.000000	 -0.226004	  0.000000	  0.000000	  0.000000	  0.000000	  0.000000	  0.000000	  1.023486	  0.000000	 -0.369271	  0.000000	  0.000000	  0.000000
0.012500	  0.000000	  0.000000	  0.000000	  0.373235	  0.000000	 -0.225830	  0.000000	  0.000000	  0.000000	  0.000000	  0.000000	  0.000000	  1.026483	  0.000000	 -0.369368	  0.000000	  0.000000	  0.000000
0.013000	  0.000000	  0.000000	  0.000000	  0.371699	  0.000000	 -0.225656	  0.000000	  0.000000	  0.000000	  0.000000	  0.000000	  0.000000	  1.029480	  0.000000	 -0.369464	  0.000000	  0.000000	  0.000000
0.013500	  0.000000	  0.000000	  0.000000	  0.370163	  0.000000	 -0.225482	  0.000000	  0.000000	  0.000000	  0.000000	  0.000000	  0.000000	  1.032478	  0.000000	 -0.369560	  0.000000	  0.000000	  0.000000
0.014000	  0.000000	  0.000000	  0.000000	  0.368627	  0.000000	 -0.225308	  0.000000	  0.000000	  0.000000	  0.000000	  0.000000	  0.000000	  1.035475	  0.000000	 -0.369656	  0.000000	  0.000000	  0.000000
0.014500	  0.000000	  0.000000	  0.000000	  0.367091	  0.000000	 -0.225134	  0.000000	  0.000000	  0.000000	  0.000000	  0.000000	  0.000000	  1.038472	  0.000000	 -0.369753	  0.000000	  0.000000	  0.000000
0.015000	  0.000000	  0.000000	  0.000000	  0.365555	  0.000000	 -0.224960	  0.000000	  0.000000	  0.000000	  0.000000	  0.000000	  0.000000	  1.041469	  0.000000	 -0.369849	  0.000000	  0.000000	  0.000000
0.015500	  0.000000	  0.000000	  0.000000	  0.364043	  0.000000	 -0.224718	  0.000000	  0.000000	  0.000000	  0.000000	  0.000000	  0.000000	  1.044432	  0.000000	 -0.370004	  0.000000	  0.000000	  0.000000
0.016000	  0.000000	  0.000000	  0.000000	  0.362530	  0.000000	 -0.224475	  0.000000	  0.000000	  0.000000	  0.000000	  0.000000	  0.000000	  1.047396	  0.000000	 -0.370159	  0.000000	  0.000000	  0.000000
0.016500	  0.000000	  0.000000	  0.000000	  0.361018	  0.000000	 -0.224233	  0.000000	  0.000000	  0.000000	  0.000000	  0.000000	  0.000000	  1.050359	  0.000000	 -0.370314	  0.000000	  0.000000	  0.000000
0.017000	  0.000000	  0.000000	  0.000000	  0.359506	  0.000000	 -0.223991	  0.000000	  0.000000	  0.000000	  0.000000	  0.000000	  0.000000	  1.053322	  0.000000	 -0.370469	  0.000000	  0.000000	  0.000000
0.017500	  0.000000	  0.000000	  0.000000	  0.357993	  0.000000	 -0.223748	  0.000000	  0.000000	  0.000000	  0.000000	  0.000000	  0.000000	  1.056285	  0.000000	 -0.370624	  0.000000	  0.000000	  0.000000
0.018000	  0.000000	  0.000000	  0.000000	  0.356481	  0.000000	 -0.223506	  0.000000	  0.000000	  0.000000	  0.000000	  0.000000	  0.000000	  1.059249	  0.000000	 -0.370780	  0.000000	  0.000000	  0.000000
0.018500	  0.000000	  0.000000	  0.000000	  0.354969	  0.000000	 -0.223263	  0.000000	  0.000000	  0.000000	  0.000000	  0.000000	  0.000000	  1.062212	  0.000000	 -0.370935	  0.000000	  0.000000	  0.000000
0.019000	  0.000000	  0.000000	  0.000000	  0.353456	  0.000000	 -0.223021	  0.000000	  0.000000	  0.000000	  0.000000	  0.000000	  0.000000	  1.065175	  0.000000	 -0.371090	  0.000000	  0.000000	  0.000000
0.019500	  0.000000	  0.000000	  0.000000	  0.351944	  0.000000	 -0.222778	  0.000000	  0.000000	  0.000000	  0.000000	  0.000000	  0.000000	  1.068139	  0.000000	 -0.371245	  0.000000	  0.000000	  0.000000
0.020000	  0.000000	  0.000000	  0.000000	  0.350432	  0.000000	 -0.222536	  0.000000	  0.000000	  0.000000	  0.000000	  0.000000	  0.000000	  1.071102	  0.000000	 -0.371400	  0.000000	  0.000000	  0.000000
0.020500	  0.000000	  0.000000	  0.000000	  0.348915	  0.000000	 -0.222221	  0.000000	  0.000000	  0.000000	  0.000000	  0.000000	  0.000000	  1.074010	  0.000000	 -0.371612	  0.000000	  0.000000	  0.000000
0.021000	  0.000000	  0.000000	  0.000000	  0.347398	  0.000000	 -0.221906	  0.000000	  0.000000	  0.000000	  0.000000	  0.000000	  0.000000	  1.076919	  0.000000	 -0.371823	  0.000000	  0.000000	  0.000000
0.021500	  0.000000	  0.000000	  0.000000	  0.345882	  0.000000	 -0.221591	  0.000000	  0.000000	  0.000000	  0.000000	  0.000000	  0.000000	  1.079827	  0.000000	 -0.372035	  0.000000	  0.000000	  0.000000
0.022000	  0.000000	  0.000000	  0.000000	  0.344365	  0.000000	 -0.221276	  0.000000	  0.000000	  0.000000	  0.000000	  0.000000	  0.000000	  1.082735	  0.000000	 -0.372246	  0.000000	  0.000000	  0.000000
0.022500	  0.000000	  0.000000	  0.000000	  0.342848	  0.000000	 -0.220961	  0.000000	  0.000000	  0.000000	  0.000000	  0.000000	  0.000000	  1.085644	  0.000000	 -0.372458	  0.000000	  0.000000	  0.000000
0.023000	  0.000000	  0.000000	  0.000000	  0.341332	  0.000000	 -0.220646	  0.000000	  0.000000	  0.000000	  0.000000	  0.000000	  0.000000	  1.088552	  0.000000	 -0.372670	  0.000000	  0.000000	  0.000000
0.023500	  0.000000	  0.000000	  0.000000	  0.339815	  0.000000	 -0.220331	  0.000000	  0.000000	  0.000000	  0.000000	  0.000000	  0.000000	  1.091461	  0.000000	 -0.372881	  0.000000	  0.000000	  0.000000
0.024000	  0.000000	  0.000000	  0.000000	  0.338298	  0.000000	 -0.220016	  0.000000	  0.000000	  0.000000	  0.000000	  0.000000	  0.000000	  1.094369	  0.000000	 -0.373093	  0.000000	  0.000000	  0.000000
0.024500	  0.000000	  0.000000	  0.000000	  0.336782	  0.000000	 -0.219701	  0.000000	  0.000000	  0.000000	  0.000000	  0.000000	  0.000000	  1.097277	  0.000000	 -0.373304	  0.000000	  0.000000	  0.000000
0.025000	  0.000000	  0.000000	  0.000000	  0.335265	  0.000000	 -0.219386	  0.000000	  0.000000	  0.000000	  0.000000	  0.000000	  0.000000	  1.100186	  0.000000	 -0.373516	  0.000000	  0.000000	  0.000000
0.025500	  0.000000	  0.000000	  0.000000	  0.333780	  0.000000	 -0.219083	  0.000000	  0.000000	  0.000000	  0.000000	  0.000000	  0.000000	  1.102968	  0.000000	 -0.373776	  0.000000	  0.000000	  0.000000
0.026000	  0.000000	  0.000000	  0.000000	  0.332294	  0.000000	 -0.218781	  0.000000	  0.000000	  0.000000	  0.000000	  0.000000	  0.000000	  1.105751	  0.000000	 -0.374037	  0.000000	  0.000000	  0.000000
0.026500	  0.000000	  0.000000	  0.000000	  0.330809	  0.000000	 -0.218479	  0.000000	  0.000000	  0.000000	  0.000000	  0.000000	  0.000000	  1.108534	  0.000000	 -0.374297	  0.000000	  0.000000	  0.000000
0.027000	  0.000000	  0.000000	  0.000000	  0.329324	  0.000000	 -0.218177	  0.000000	  0.000000	  0.000000	  0.000000	  0.000000	  0.000000	  1.111316	  0.000000	 -0.374558	  0.000000	  0.000000	  0.000000
0.027500	  0.000000	  0.000000	  0.000000	  0.327839	  0.000000	 -0.217875	  0.000000	  0.000000	  0.000000	  0.000000	  0.000000	  0.000000	  1.114099	  0.000000	 -0.374818	  0.000000	  0.000000	  0.000000
0.028000	  0.000000	  0.000000	  0.000000	  0.326353	  0.000000	 -0.217572	  0.000000	  0.000000	  0.000000	  0.000000	  0.000000	  0.000000	  1.116882	  0.000000	 -0.375079	  0.000000	  0.000000	  0.000000
